PathFileType	4	(X/Y/Z)	Patient4_TMGait_0pt5_02_right_44.trc.trc
DataRate	CameraRate	NumFrames	NumMarkers	Units	OrigDataRate	OrigDataStartFrame	OrigNumFrames
75.268817204301	75.268817204301	4	33	mm	75.268817204301	71	       141
Frame#	Time	Sacral			L.Shoulder			Chest			R.Shoulder			Neck			R.ASIS			L.ASIS			R.Thigh.Superior			R.Thigh.Lateral			R.Thigh.Inferior			R.Patella			L.Thigh.Superior			L.Thigh.Lateral			L.Thigh.Inferior			L.Patella			L.Shank.Superior			L.Shank.Lateral			L.Shank.Inferior			R.Shank.Superior			R.Shank.Lateral			R.Shank.Inferior			R.Heel			R.Midfoot.Superior			R.Midfoot.Lateral			R.Toe			L.Heel			L.Midfoot.Lateral			L.Midfoot.Superior			L.Toe			L.Elbow			L.Wrist			R.Elbow			R.Wrist			
		X1	Y1	Z1	X2	Y2	Z2	X3	Y3	Z3	X4	Y4	Z4	X5	Y5	Z5	X6	Y6	Z6	X7	Y7	Z7	X8	Y8	Z8	X9	Y9	Z9	X10	Y10	Z10	X11	Y11	Z11	X12	Y12	Z12	X13	Y13	Z13	X14	Y14	Z14	X15	Y15	Z15	X16	Y16	Z16	X17	Y17	Z17	X18	Y18	Z18	X19	Y19	Z19	X20	Y20	Z20	X21	Y21	Z21	X22	Y22	Z22	X23	Y23	Z23	X24	Y24	Z24	X25	Y25	Z25	X26	Y26	Z26	X27	Y27	Z27	X28	Y28	Z28	X29	Y29	Z29	X30	Y30	Z30	X31	Y31	Z31	X32	Y32	Z32	X33	Y33	Z33	

71	58.300000000000	667.361690871797	1005.264482576331	530.685354840829	822.627304633136	1432.980313873492	336.974414680395	942.753899036877	1358.428884387279	482.816949346064	881.982723727857	1430.006712574134	667.121355085150	842.614601480360	1490.596099895110	488.307282932087	902.086363197362	939.958286946606	628.767719930837	865.402384497049	952.633786670456	354.866295379015	902.408737208613	728.003805800695	602.736848250471	800.003350936812	633.401675103990	665.868545772192	859.224186271635	568.334187215797	585.214821477997	841.632194917660	483.523559559949	588.514224483176	938.447510156436	765.412720662728	384.503157183365	883.772894562325	638.685300567840	307.805563623254	987.556134655476	577.925282356339	366.180900731609	1012.921298033135	512.144529935112	362.452587709280	995.585182386517	440.960436871814	351.329238110577	926.636543571254	312.560696012341	301.316559050920	1013.627280557398	212.073428362812	352.942077142822	806.258456082996	400.144608134010	593.815462523509	727.603914801291	301.386542394707	653.846839909615	760.832136142581	204.942138695016	587.379423313556	615.462788087707	44.409630341749	554.787428010695	787.894639157448	96.185535249485	589.112712226119	699.694293036638	36.630117664996	628.086971227811	907.536055348685	41.333618239436	614.539651652059	923.719716940577	40.715308399248	393.595185884442	995.677067256921	39.842864345515	311.728509098770	1073.618806693105	109.253058953380	330.667592405167	1203.007645300654	67.885237976599	301.594023773129	715.749565644763	1094.716895618861	226.255270889360	723.663645052253	833.543142114584	242.019953820463	1020.965526653707	1117.325650484649	762.203067491062	1230.773223571486	1199.389150629085	653.444234138395	
72	58.313285714286	668.350032226936	1004.392940259090	528.345931350254	822.683325735400	1432.274295387396	334.467232019315	942.929381539091	1358.052354071452	480.418424233550	881.708887166697	1429.474442690012	664.677370992026	842.370655617588	1489.913923843703	485.805803091503	902.846477355796	939.326968175738	626.762471694084	866.587951702382	951.616353485285	352.869052398475	902.299725189069	727.060435938639	601.140436103317	799.311651151761	632.977087151822	664.359123723371	858.097465903530	567.468718334368	583.765694050522	839.648946665709	482.459238729202	586.985152342446	939.207676417326	763.877572618863	382.649153911943	882.871486359927	636.908974847201	307.344403285607	986.983421374906	576.366541098183	365.115534327794	1011.279777906342	509.874962094723	362.116747887360	993.571536107058	438.373999718484	351.186405909129	923.126691641277	310.549526474752	301.887189283603	1008.944860450910	209.345841189105	353.785508606062	803.467727103129	399.319111503257	592.703984267666	723.809303154564	301.610328854110	653.248841386264	755.708611274063	204.611102672654	586.955087479821	608.863880473646	44.791694659290	554.977700809386	781.378316040840	96.205196823058	589.240302984504	693.087595057174	36.715941649211	628.188918105642	900.908616212399	41.006335411191	614.628652798344	916.526832579636	39.999802747478	394.598390156220	988.611953770155	38.374924629033	312.744073809471	1067.773962946720	106.111167813799	332.440969197075	1196.661935574546	62.433361747771	303.300901081910	711.299579697957	1095.762801399911	224.492818748418	712.928803798311	834.649025264551	242.871460504486	1022.272901734533	1117.533390053130	759.748672952491	1230.837083728447	1201.112065933354	649.784785236541	
73	58.326571428571	669.341634448628	1003.633379789467	525.890177850191	822.845820878439	1431.620348282823	331.772506648231	943.203211725028	1357.742570634263	477.857623095535	881.554213239058	1429.100521640117	662.057209139015	842.273193084444	1489.336043162179	483.071281718426	903.567325707212	938.707001903549	624.574692514684	867.747124755435	950.771243763685	350.718700176086	902.321567739885	726.159672247727	599.353978219481	798.849062424819	632.541510951033	662.645690453641	857.269978750419	566.609230451865	582.114537647189	838.044361471519	481.326052183479	585.278367158769	940.045881997529	762.650552002984	380.779152385308	882.317922309998	635.576288788367	306.701226166042	986.625486625314	575.186461628073	364.096837597204	1009.762179649433	507.873375921765	361.803105926291	991.667002420646	436.046203589048	350.973902763529	919.716292587334	308.894451087996	302.145586766668	1004.081980357946	206.867469607025	354.528455293043	800.966441727401	398.446163734674	591.444169556813	720.232686107828	301.890157799587	652.524650549920	750.715427564515	204.302090604716	586.471469868757	602.290744741870	45.347024217235	555.194556961090	774.914342622496	96.275913821592	589.378986683068	686.505457891742	36.885318164850	628.311068023279	894.310575386116	40.659647284356	614.726267516620	908.978565429993	39.379422401031	395.317851612336	981.231922007171	37.216824390288	313.501980778869	1061.461650195461	103.418630272850	334.088021918580	1189.945827212643	57.720216400674	304.896777714318	707.147273697921	1096.773664281609	222.766523512571	703.084411213664	835.853508467059	243.514994575406	1022.813174243999	1117.470869029901	757.541793035925	1230.759763133673	1201.520108102490	646.720037797227	
74	58.339857142857	670.290722382107	1003.040651319468	523.342020736588	823.105530291130	1431.060978493893	328.924400215760	943.567860264443	1357.522534206240	475.154282038377	881.550258071261	1428.926909170608	659.281331762347	842.334726083137	1488.900976069637	480.135855646895	904.209305573838	938.139767309894	622.208911843400	868.825079155955	950.152336929856	348.410368876297	902.435708013498	725.346912432847	597.366385671556	798.604271555227	632.122633722599	660.733437605917	856.751409634772	565.788372830906	580.270568128756	836.862099650956	480.132907965952	583.436560469275	940.948517312608	761.829113146678	378.906172307632	882.134762431995	634.758593934256	305.844059351242	986.481045505297	574.429033691461	363.081147341423	1008.394413102239	506.225705717826	361.450425833990	989.912361261908	434.073106609057	350.645837814606	916.520870894015	307.663633466177	302.027450445694	999.197468354746	204.757452617823	355.112059380134	798.774365441949	397.550661442545	590.057701614821	716.877227389625	302.257104809377	651.675199704112	745.868634155311	204.047644708969	585.941888598260	595.751778316667	46.133696676701	555.434303659828	768.525913146948	96.413196336893	589.528209075628	679.955475954584	37.171102120044	628.449836545464	887.746919095630	40.291634406795	614.830172909608	901.371675179217	38.878026669991	395.767264116965	973.799276404569	36.383377676431	313.993936475942	1054.888158754003	101.288053579791	335.486932076687	1183.075459163612	53.965827253347	306.241775199161	703.382696121597	1097.754267974311	221.050776190301	694.201936133748	837.111103608927	243.880255213452	1022.592236400241	1117.156711175280	755.557263412913	1230.590543758250	1200.565841241066	644.243655672496	
